<svg width="540" height="485" viewBox="0 0 540 485" fill="none" xmlns="http://www.w3.org/2000/svg">
<path fill-rule="evenodd" clip-rule="evenodd" d="M256.417 72.0347C251.612 66.3939 248.359 59.4811 248.903 51.735C250.469 29.4166 281.537 34.3264 287.58 45.5908C293.623 56.8552 292.905 85.4284 285.095 87.4417C281.98 88.2446 275.344 86.2778 268.591 82.2073L272.83 112.196H247.8L256.417 72.0347Z" fill="#57331F"/>
<path fill-rule="evenodd" clip-rule="evenodd" d="M269.842 54.1999C270.8 67.546 273.335 74.2191 277.446 74.2191C283.612 74.2191 288.844 70.3044 291.549 70.3044C293.522 70.3044 293.081 72.7726 291.774 74.6026C290.695 76.1124 285.443 77.5677 285.443 79.9084C285.443 82.2492 289.593 80.4383 289.593 81.8265C289.593 84.1228 290.322 88.4403 286.337 88.4403C282.303 88.4403 270.739 86.9704 268.757 80.9841C267.478 77.1207 266.651 69.115 266.276 56.967C266.031 56.9379 265.782 56.923 265.53 56.923C262.074 56.923 259.272 59.7245 259.272 63.1803C259.272 64.9347 259.994 66.5205 261.157 67.6567C259.709 69.7003 258.087 71.8352 256.227 74.0381C249.242 69.8472 244.059 57.5789 250.888 45.7935C252.776 40.02 257.049 36.9361 262.096 35.5042C266.184 33.7941 270.428 33.6012 274.011 34.6264C281.033 35.2288 287.304 37.3702 289.082 38.642C289.082 45.2907 287.793 47.2633 276.79 47.0894C274.086 48.5174 272.007 50.9762 269.842 54.1999Z" fill="#1D0F08"/>
<path fill-rule="evenodd" clip-rule="evenodd" d="M245.793 198.499L296.98 328.054L331.311 437.583H344.868L292.383 198.499L245.793 198.499Z" fill="#3D2216"/>
<path fill-rule="evenodd" clip-rule="evenodd" d="M235.485 198.499C234.94 244.026 226.991 305.32 225.721 308.158C224.874 310.05 195.646 334.109 138.036 380.336L147.374 390.328C215.348 350.694 250.908 328.234 254.053 322.948C258.772 315.019 274.133 242.053 286.466 198.499H235.485Z" fill="#57331F"/>
<path fill-rule="evenodd" clip-rule="evenodd" d="M136.787 377C133.652 378.109 131.491 379.16 130.307 380.154C128.866 381.362 126.965 383.366 124.604 386.166C126.007 387.837 138.61 402.857 162.414 431.225C167.267 429.148 168.79 426.718 166.982 423.937C165.174 421.155 163.694 418.825 162.542 416.948L154.305 388.17C154.147 387.616 153.57 387.296 153.016 387.455C153.006 387.457 152.997 387.46 152.987 387.463L148.592 388.857C145.543 387.436 143.406 385.995 142.18 384.535C141.185 383.349 140.289 381.308 139.494 378.414C139.188 377.303 138.04 376.65 136.93 376.956C136.882 376.969 136.834 376.984 136.787 377Z" fill="#E4E4E4"/>
<path fill-rule="evenodd" clip-rule="evenodd" d="M325.76 432.527C324.593 435.641 324.01 437.972 324.01 439.518C324.01 441.399 324.323 444.143 324.95 447.751C327.131 447.751 346.738 447.751 383.771 447.751C385.299 442.698 384.417 439.969 381.124 439.566C377.83 439.164 375.095 438.8 372.916 438.475L345.577 426.287C345.051 426.052 344.434 426.289 344.2 426.815C344.196 426.824 344.192 426.833 344.188 426.842L342.431 431.105C339.382 432.527 336.905 433.239 334.998 433.239C333.45 433.239 331.311 432.613 328.582 431.362C327.535 430.882 326.297 431.342 325.817 432.389C325.796 432.434 325.777 432.48 325.76 432.527Z" fill="#E4E4E4"/>
<path fill-rule="evenodd" clip-rule="evenodd" d="M280.208 426.301L344.664 419.306L296.894 198.499H239.164L280.208 426.301Z" fill="#EA8167"/>
<path fill-rule="evenodd" clip-rule="evenodd" d="M151.369 364.215L193.648 414.259C238.179 365.623 264.141 333.887 271.534 319.053C278.926 304.219 285.572 264.034 291.47 198.499H226.476C223.254 256.154 221.082 286.323 219.961 289.006C218.839 291.689 195.975 316.759 151.369 364.215Z" fill="#F3603C"/>
<path fill-rule="evenodd" clip-rule="evenodd" d="M337.018 185.566L366.561 214.387C375.157 218.053 382.2 222.102 387.69 226.533C388.925 228.022 390.269 230.876 384.46 229.599C378.651 228.322 372.483 227.24 371.391 229.129C370.299 231.018 373.516 233.913 371.499 236.386C370.153 238.034 365.629 232.791 357.926 220.657L327.206 202.544L337.018 185.566ZM192.552 159.483L215.389 159.568C197.996 215.92 188.763 245.425 187.691 248.083C185.277 254.063 190.384 263.171 192.568 268.066C185.455 271.249 186.213 259.462 177.241 263.636C169.051 267.446 162.822 274.35 153.36 268.512C152.196 267.794 150.922 265.091 154.002 262.98C161.675 257.718 172.733 248.509 174.227 245.478C176.264 241.345 182.373 212.68 192.552 159.483Z" fill="#57331F"/>
<path fill-rule="evenodd" clip-rule="evenodd" d="M262.14 94.7003L271.158 93.1536C285.364 143.371 358.355 177.601 362.836 196.374C364.479 203.258 359.524 206.738 362.084 208.835L350.362 217.416C348.377 215.1 344.141 219.336 335.295 216.373C326.449 213.41 262.14 154.162 262.14 94.7003Z" fill="#191847"/>
<path fill-rule="evenodd" clip-rule="evenodd" d="M277.31 101.377C276.27 167.861 314.703 184.82 306.142 211.49C299.073 233.515 231.408 257.19 219.699 235.602C214.96 226.863 212.809 216.293 212.565 204.803C209.573 213.631 207.206 221.231 205.465 227.602C202.461 238.594 190.818 240.342 190.818 244.576L175.477 240.342C176.518 234.589 169.286 231.788 171.225 218.935C179.913 161.349 203.256 119.607 241.255 93.7084L241.648 88.0866C241.809 85.7883 243.803 84.0554 246.101 84.2161L274.19 86.1804C276.489 86.3411 278.222 88.3345 278.061 90.6328L277.31 101.377Z" fill="#2F3676"/>
</svg>
