<svg width="136" height="18" viewBox="0 0 136 18" fill="none" xmlns="http://www.w3.org/2000/svg">
<path fill-rule="evenodd" clip-rule="evenodd" d="M2.786 10.286C4.324 10.286 5.571 11.565 5.571 13.143C5.571 14.72 4.324 16 2.786 16C1.247 16 0 14.72 0 13.143C0 11.565 1.247 10.286 2.786 10.286ZM2.786 0C4.324 0 5.57 1.28 5.57 2.857C5.57 4.435 4.323 5.714 2.785 5.714C1.247 5.714 0 4.435 0 2.857C0 1.28 1.247 0 2.786 0ZM12.814 0C14.353 0 15.6 1.28 15.6 2.857C15.6 4.435 14.353 5.714 12.814 5.714C11.276 5.714 10.029 4.435 10.029 2.857C10.029 1.28 11.276 0 12.814 0Z" fill="#F3603C"/>
<path opacity="0.5" d="M12.814 16.114C14.3527 16.114 15.6 14.8349 15.6 13.257C15.6 11.6791 14.3527 10.4 12.814 10.4C11.2753 10.4 10.028 11.6791 10.028 13.257C10.028 14.8349 11.2753 16.114 12.814 16.114Z" fill="#F3603C"/>
<path d="M32.308 17.095C31.244 17.095 30.4397 16.8037 29.895 16.221C29.3503 15.6257 29.078 14.834 29.078 13.846C29.078 13.2887 29.1603 12.611 29.325 11.813L30.503 6.379C30.5283 6.27767 30.5853 5.999 30.674 5.543C30.7753 5.087 30.826 4.593 30.826 4.061C30.826 3.757 30.7627 3.529 30.636 3.377C30.522 3.225 30.3637 3.149 30.161 3.149C29.781 3.149 29.3377 3.33267 28.831 3.7C28.3243 4.05467 27.7923 4.60567 27.235 5.353C27.0577 5.59367 26.8613 5.714 26.646 5.714C26.4687 5.714 26.3103 5.63167 26.171 5.467C26.0443 5.28967 25.981 5.09333 25.981 4.878C25.981 4.48533 26.1583 4.042 26.513 3.548C27.805 1.77467 29.3187 0.887999 31.054 0.887999C31.8267 0.887999 32.4283 1.12233 32.859 1.591C33.3023 2.05967 33.524 2.75 33.524 3.662C33.524 4.308 33.4797 4.90333 33.391 5.448C33.3023 5.99267 33.1503 6.73367 32.935 7.671L32.156 11.148C32.1307 11.262 32.0863 11.4647 32.023 11.756C31.9597 12.0473 31.909 12.326 31.871 12.592C31.833 12.8453 31.814 13.0987 31.814 13.352C31.814 13.7573 31.928 14.0803 32.156 14.321C32.384 14.5617 32.707 14.682 33.125 14.682C33.885 14.682 34.6513 14.2767 35.424 13.466C36.2093 12.6553 36.9313 11.3507 37.59 9.552C38.2613 7.74067 38.7807 5.429 39.148 2.617C39.2367 1.971 39.3633 1.52133 39.528 1.268C39.7053 1.01467 40.041 0.887999 40.535 0.887999C40.9783 0.887999 41.3077 1.021 41.523 1.287C41.7383 1.553 41.846 1.98367 41.846 2.579C41.846 2.921 41.8017 3.37067 41.713 3.928C41.637 4.48533 41.5167 5.26433 41.352 6.265C41.01 8.203 40.7377 9.98267 40.535 11.604C40.4337 12.3387 40.383 12.8833 40.383 13.238C40.383 13.7573 40.497 14.1563 40.725 14.435C40.9657 14.701 41.2823 14.834 41.675 14.834C42.093 14.834 42.4983 14.6947 42.891 14.416C43.2963 14.1373 43.7713 13.675 44.316 13.029C44.468 12.8517 44.639 12.763 44.829 12.763C44.9937 12.763 45.1203 12.839 45.209 12.991C45.3103 13.143 45.361 13.352 45.361 13.618C45.361 14.112 45.2407 14.5047 45 14.796C44.3413 15.594 43.689 16.1767 43.043 16.544C42.397 16.9113 41.7193 17.095 41.01 17.095C39.9587 17.095 39.1543 16.829 38.597 16.297C38.0397 15.7523 37.761 15.0493 37.761 14.188C37.761 13.7067 37.8623 12.7693 38.065 11.376C37.4317 13.238 36.6273 14.6567 35.652 15.632C34.6893 16.6073 33.5747 17.095 32.308 17.095ZM50.4463 17.152C48.7617 17.152 47.4127 16.8353 46.3993 16.202C45.386 15.556 44.8793 14.5743 44.8793 13.257C44.8793 12.5603 44.9997 12.0283 45.2403 11.661C45.481 11.2937 45.8357 11.11 46.3043 11.11C46.6463 11.11 46.925 11.1987 47.1403 11.376C47.3557 11.5533 47.4633 11.7813 47.4633 12.06C47.4633 12.3133 47.4443 12.535 47.4063 12.725C47.4063 12.7757 47.3937 12.8643 47.3683 12.991C47.3557 13.1177 47.3493 13.2507 47.3493 13.39C47.3493 13.96 47.6343 14.3843 48.2043 14.663C48.787 14.9417 49.5977 15.081 50.6363 15.081C51.713 15.081 52.5553 14.891 53.1633 14.511C53.7713 14.1183 54.0753 13.5737 54.0753 12.877C54.0753 12.4463 53.936 12.079 53.6573 11.775C53.3787 11.4583 53.0303 11.1987 52.6123 10.996C52.1943 10.7807 51.6053 10.521 50.8453 10.217C49.87 9.837 49.072 9.476 48.4513 9.134C47.8433 8.792 47.3177 8.32967 46.8743 7.747C46.4437 7.15167 46.2283 6.417 46.2283 5.543C46.2283 4.631 46.469 3.82033 46.9503 3.111C47.4443 2.40167 48.1473 1.85067 49.0593 1.458C49.984 1.06533 51.067 0.868999 52.3083 0.868999C53.233 0.868999 54.0817 1.00833 54.8543 1.287C55.627 1.553 56.2413 1.96467 56.6973 2.522C57.166 3.07933 57.4003 3.76333 57.4003 4.574C57.4003 5.372 57.28 5.97367 57.0393 6.379C56.7987 6.78433 56.444 6.987 55.9753 6.987C55.646 6.987 55.3673 6.88567 55.1393 6.683C54.924 6.48033 54.8163 6.23967 54.8163 5.961C54.8163 5.72033 54.8353 5.49867 54.8733 5.296C54.9113 4.916 54.9303 4.67533 54.9303 4.574C54.9303 4.042 54.6707 3.63667 54.1513 3.358C53.632 3.07933 52.986 2.94 52.2133 2.94C51.124 2.94 50.288 3.14267 49.7053 3.548C49.1353 3.94067 48.8503 4.498 48.8503 5.22C48.8503 5.70133 48.996 6.113 49.2873 6.455C49.5913 6.797 49.965 7.082 50.4083 7.31C50.8517 7.538 51.4723 7.81033 52.2703 8.127C53.233 8.51967 54.0057 8.87433 54.5883 9.191C55.171 9.50767 55.665 9.93833 56.0703 10.483C56.4883 11.0277 56.6973 11.699 56.6973 12.497C56.6973 13.9917 56.1273 15.1443 54.9873 15.955C53.86 16.753 52.3463 17.152 50.4463 17.152ZM63.1451 17.095C62.6765 17.095 62.3408 16.9937 62.1381 16.791C61.9355 16.5757 61.8341 16.1767 61.8341 15.594C61.8341 15.2013 61.8721 14.701 61.9481 14.093C62.0368 13.4723 62.1761 12.6237 62.3661 11.547C62.6955 9.55833 62.9551 7.83567 63.1451 6.379C63.2591 5.467 63.3161 4.707 63.3161 4.099C63.3161 3.529 63.1071 3.244 62.6891 3.244C62.3598 3.244 61.9608 3.415 61.4921 3.757C61.0361 4.08633 60.5295 4.61833 59.9721 5.353C59.7948 5.59367 59.5985 5.714 59.3831 5.714C59.2058 5.714 59.0475 5.63167 58.9081 5.467C58.7815 5.28967 58.7181 5.09333 58.7181 4.878C58.7181 4.67533 58.7561 4.47267 58.8321 4.27C58.9208 4.05467 59.0601 3.814 59.2501 3.548C59.8581 2.69933 60.5358 2.047 61.2831 1.591C62.0305 1.12233 62.7778 0.887999 63.5251 0.887999C64.2218 0.887999 64.7538 1.10967 65.1211 1.553C65.5011 1.99633 65.6911 2.64233 65.6911 3.491C65.6911 3.833 65.6595 4.23833 65.5961 4.707C65.5328 5.163 65.4758 5.53667 65.4251 5.828C65.3745 6.11933 65.3365 6.322 65.3111 6.436C66.0331 4.37133 66.8438 2.93367 67.7431 2.123C68.6425 1.29967 69.6305 0.887999 70.7071 0.887999C71.5305 0.887999 72.1765 1.17933 72.6451 1.762C73.1265 2.34467 73.3671 3.168 73.3671 4.232C73.3671 4.65 73.3101 5.16933 73.1961 5.79C73.8295 4.042 74.5705 2.788 75.4191 2.028C76.2678 1.268 77.2431 0.887999 78.3451 0.887999C79.2318 0.887999 79.9095 1.173 80.3781 1.743C80.8595 2.313 81.1001 3.111 81.1001 4.137C81.1001 4.69433 81.0178 5.372 80.8531 6.17L79.6941 11.604C79.5675 12.2373 79.5041 12.782 79.5041 13.238C79.5041 13.77 79.6245 14.169 79.8652 14.435C80.1185 14.701 80.4668 14.834 80.9101 14.834C81.3281 14.834 81.7335 14.6947 82.1261 14.416C82.5315 14.1373 83.0065 13.675 83.5512 13.029C83.7031 12.8517 83.8741 12.763 84.0641 12.763C84.2288 12.763 84.3555 12.839 84.4441 12.991C84.5455 13.143 84.5961 13.352 84.5961 13.618C84.5961 14.112 84.4758 14.5047 84.2351 14.796C83.5765 15.594 82.9241 16.1767 82.2781 16.544C81.6321 16.9113 80.9545 17.095 80.2451 17.095C79.1685 17.095 78.3261 16.7783 77.7181 16.145C77.1101 15.499 76.8061 14.6377 76.8061 13.561C76.8061 12.8137 76.9581 11.7307 77.2621 10.312L78.0222 6.835C78.0475 6.721 78.0918 6.51833 78.1551 6.227C78.2185 5.93567 78.2691 5.66333 78.3072 5.41C78.3451 5.144 78.3641 4.88433 78.3641 4.631C78.3641 4.18767 78.2755 3.85833 78.0981 3.643C77.9335 3.415 77.6928 3.301 77.3761 3.301C76.7808 3.301 76.1538 3.68733 75.4951 4.46C74.8491 5.22 74.2285 6.48667 73.6331 8.26C73.0505 10.0333 72.5755 12.3387 72.2081 15.176C72.1195 15.936 71.9611 16.449 71.7331 16.715C71.5178 16.9683 71.1631 17.095 70.6691 17.095C70.2385 17.095 69.9218 16.9937 69.7191 16.791C69.5291 16.5883 69.4341 16.2083 69.4341 15.651C69.4341 15.1317 69.5038 14.454 69.6431 13.618C69.7825 12.7693 69.9598 11.775 70.1751 10.635C70.7578 7.56967 71.0491 5.59367 71.0491 4.707C71.0491 4.22567 70.9541 3.871 70.7641 3.643C70.5868 3.415 70.3145 3.301 69.9471 3.301C69.3265 3.301 68.6868 3.65567 68.0281 4.365C67.3695 5.06167 66.7235 6.30933 66.0901 8.108C65.4695 9.894 64.9501 12.3133 64.5321 15.366C64.4435 16.012 64.3105 16.4617 64.1331 16.715C63.9685 16.9683 63.6391 17.095 63.1451 17.095ZM89.1832 17.095C88.3092 17.095 87.5175 16.8797 86.8082 16.449C86.1115 16.0183 85.5605 15.3977 85.1552 14.587C84.7498 13.7637 84.5472 12.7947 84.5472 11.68C84.5472 9.75467 84.9588 7.975 85.7822 6.341C86.6055 4.69433 87.8215 3.377 89.4302 2.389C91.0388 1.38833 92.9705 0.887999 95.2252 0.887999C95.8078 0.887999 96.4285 0.932333 97.0872 1.021C97.7585 1.10967 98.3665 1.24267 98.9112 1.42C99.2658 1.52133 99.4432 1.77467 99.4432 2.18C99.4432 2.50933 99.3165 2.81967 99.0632 3.111C98.8225 3.40233 98.5375 3.548 98.2082 3.548C98.1068 3.548 98.0308 3.54167 97.9802 3.529C97.3215 3.377 96.7578 3.26933 96.2892 3.206C95.8205 3.13 95.3265 3.092 94.8072 3.092C93.1985 3.092 91.8305 3.48467 90.7032 4.27C89.5758 5.04267 88.7335 6.06867 88.1762 7.348C87.6188 8.62733 87.3402 10.008 87.3402 11.49C87.3402 12.5667 87.5492 13.4027 87.9672 13.998C88.3978 14.5807 88.9552 14.872 89.6392 14.872C90.4118 14.872 91.0895 14.5553 91.6722 13.922C92.2548 13.2887 92.7868 12.2627 93.2682 10.844C93.7495 9.42533 94.2245 7.5 94.6932 5.068C94.7692 4.71333 94.9212 4.47267 95.1492 4.346C95.3772 4.21933 95.6812 4.156 96.0612 4.156C96.9605 4.156 97.4102 4.44733 97.4102 5.03C97.4102 5.13133 97.3912 5.258 97.3532 5.41C97.0238 6.63867 96.7198 8.00033 96.4412 9.495C96.1752 10.977 96.0422 12.1043 96.0422 12.877C96.0422 13.561 96.1435 14.0613 96.3462 14.378C96.5488 14.682 96.8592 14.834 97.2772 14.834C97.6825 14.834 98.0688 14.701 98.4362 14.435C98.8035 14.1563 99.2658 13.6877 99.8232 13.029C99.9752 12.8517 100.146 12.763 100.336 12.763C100.501 12.763 100.627 12.839 100.716 12.991C100.817 13.143 100.868 13.352 100.868 13.618C100.868 14.112 100.748 14.5047 100.507 14.796C99.8865 15.5433 99.2785 16.1133 98.6832 16.506C98.0878 16.8987 97.3595 17.095 96.4982 17.095C95.6115 17.095 94.8958 16.8417 94.3512 16.335C93.8065 15.8157 93.4645 15.0873 93.3252 14.15C92.3878 16.1133 91.0072 17.095 89.1832 17.095ZM104.158 17.095C103.689 17.095 103.353 16.9937 103.151 16.791C102.948 16.5757 102.847 16.1767 102.847 15.594C102.847 15.2013 102.885 14.7263 102.961 14.169C103.037 13.6117 103.17 12.7693 103.36 11.642C103.385 11.49 103.486 10.8757 103.664 9.799C103.841 8.70967 103.999 7.56967 104.139 6.379C104.265 5.36567 104.329 4.60567 104.329 4.099C104.329 3.529 104.12 3.244 103.702 3.244C103.385 3.244 102.986 3.415 102.505 3.757C102.036 4.08633 101.529 4.61833 100.985 5.353C100.807 5.59367 100.611 5.714 100.396 5.714C100.218 5.714 100.06 5.63167 99.9207 5.467C99.794 5.28967 99.7307 5.09333 99.7307 4.878C99.7307 4.66267 99.7687 4.46 99.8447 4.27C99.9207 4.06733 100.06 3.82667 100.263 3.548C100.883 2.69933 101.574 2.047 102.334 1.591C103.094 1.12233 103.892 0.887999 104.728 0.887999C105.424 0.887999 105.944 1.10333 106.286 1.534C106.64 1.96467 106.818 2.59167 106.818 3.415C106.818 4.14967 106.716 5.21367 106.514 6.607C107.147 4.73233 107.951 3.31367 108.927 2.351C109.902 1.37567 111.048 0.887999 112.366 0.887999C113.404 0.887999 114.183 1.18567 114.703 1.781C115.235 2.36367 115.501 3.149 115.501 4.137C115.501 4.69433 115.418 5.372 115.254 6.17L114.095 11.604C113.968 12.2373 113.905 12.782 113.905 13.238C113.905 13.77 114.025 14.169 114.266 14.435C114.519 14.701 114.867 14.834 115.311 14.834C115.729 14.834 116.134 14.6947 116.527 14.416C116.932 14.1373 117.407 13.675 117.952 13.029C118.104 12.8517 118.275 12.763 118.465 12.763C118.629 12.763 118.756 12.839 118.845 12.991C118.946 13.143 118.997 13.352 118.997 13.618C118.997 14.112 118.876 14.5047 118.636 14.796C117.977 15.594 117.325 16.1767 116.679 16.544C116.033 16.9113 115.355 17.095 114.646 17.095C113.569 17.095 112.727 16.7783 112.119 16.145C111.511 15.499 111.207 14.6377 111.207 13.561C111.207 13.143 111.238 12.687 111.302 12.193C111.378 11.699 111.498 11.072 111.663 10.312L112.423 6.835C112.448 6.721 112.492 6.51833 112.556 6.227C112.619 5.93567 112.67 5.66333 112.708 5.41C112.746 5.144 112.765 4.88433 112.765 4.631C112.765 4.22567 112.651 3.90267 112.423 3.662C112.195 3.42133 111.872 3.301 111.454 3.301C110.694 3.301 109.934 3.70633 109.174 4.517C108.414 5.32767 107.711 6.63867 107.065 8.45C106.419 10.2487 105.912 12.554 105.545 15.366C105.456 16.012 105.323 16.4617 105.146 16.715C104.981 16.9683 104.652 17.095 104.158 17.095Z" fill="#242D52"/>
</svg>
